<svg width="22" height="18" viewBox="0 0 22 18" fill="none" xmlns="http://www.w3.org/2000/svg">
<path opacity="0.7" d="M21.1621 2.6569C20.3986 2.9946 19.589 3.21638 18.7601 3.3149C19.6338 2.79234 20.2878 1.96992 20.6001 1.0009C19.7801 1.4889 18.8811 1.8309 17.9441 2.0159C17.3147 1.34248 16.4804 0.895866 15.571 0.745488C14.6616 0.595109 13.728 0.749394 12.9153 1.18436C12.1026 1.61932 11.4564 2.31059 11.0772 3.1507C10.6979 3.9908 10.6068 4.93268 10.8181 5.8299C9.15516 5.74656 7.52838 5.31443 6.04334 4.56157C4.55829 3.80871 3.24818 2.75195 2.19805 1.4599C1.82634 2.09835 1.63101 2.82413 1.63205 3.5629C1.63205 5.0129 2.37005 6.2939 3.49205 7.0439C2.82806 7.023 2.17869 6.84368 1.59805 6.5209V6.5729C1.59825 7.5386 1.93242 8.47452 2.5439 9.22196C3.15538 9.96941 4.00653 10.4824 4.95305 10.6739C4.33667 10.8409 3.69036 10.8656 3.06305 10.7459C3.32992 11.5771 3.85006 12.3041 4.55064 12.825C5.25123 13.3459 6.09718 13.6347 6.97005 13.6509C6.10253 14.3322 5.10923 14.8359 4.04693 15.1331C2.98464 15.4303 1.87418 15.5152 0.779053 15.3829C2.69075 16.6123 4.91615 17.265 7.18905 17.2629C14.8821 17.2629 19.0891 10.8899 19.0891 5.3629C19.0891 5.1829 19.0841 5.0009 19.0761 4.8229C19.8949 4.23107 20.6017 3.49792 21.1631 2.6579L21.1621 2.6569Z" fill="white"/>
</svg>
