<svg width="18" height="19" viewBox="0 0 18 19" fill="none" xmlns="http://www.w3.org/2000/svg">
<path opacity="0.7" d="M12.402 18.0859V11.1199H14.735L15.084 8.41194H12.402V6.68394C12.402 5.89994 12.62 5.36494 13.744 5.36494H15.178V2.94294C14.4838 2.86928 13.7861 2.83356 13.088 2.83594C11.021 2.83594 9.606 4.09794 9.606 6.41594V8.41194H7.268V11.1199H9.606V18.0859H1C0.734784 18.0859 0.48043 17.9806 0.292893 17.793C0.105357 17.6055 0 17.3512 0 17.0859V1.08594C0 0.820721 0.105357 0.566367 0.292893 0.378831C0.48043 0.191294 0.734784 0.0859375 1 0.0859375H17C17.2652 0.0859375 17.5196 0.191294 17.7071 0.378831C17.8946 0.566367 18 0.820721 18 1.08594V17.0859C18 17.3512 17.8946 17.6055 17.7071 17.793C17.5196 17.9806 17.2652 18.0859 17 18.0859H12.402Z" fill="white"/>
</svg>
