<svg width="20" height="26" viewBox="0 0 20 26" fill="none" xmlns="http://www.w3.org/2000/svg">
<mask id="path-1-inside-1" fill="white">
<path fill-rule="evenodd" clip-rule="evenodd" d="M3.00619 1.31219C2.37099 1.31232 1.87982 1.80906 1.87866 2.39166L1.8376 22.9463C1.83643 23.5289 2.32566 24.0256 2.96091 24.0255L6.00088 24.0251C6.4637 24.0251 6.89247 23.7826 7.12136 23.38L7.12139 23.3799C7.16674 23.3001 7.21225 23.2201 7.25835 23.1397C7.46999 22.7707 7.69345 22.3962 7.95124 22.0662C8.48487 21.3829 9.18807 20.8661 10.2818 20.866C11.3785 20.8659 12.0662 21.3857 12.5891 22.0687C12.8407 22.3974 13.0607 22.7712 13.2716 23.1369L13.3402 23.256C13.6178 23.7385 14.1343 24.0242 14.6913 24.0242L17.5901 24.0238C18.2253 24.0238 18.7166 23.527 18.7177 22.9444L18.7588 2.38976C18.7599 1.80712 18.2707 1.31047 17.6355 1.31055L14.8487 1.31086C14.2286 1.31093 13.6514 1.62557 13.3388 2.16176L13.2955 2.23617C13.082 2.60199 12.8618 2.97494 12.6118 3.30125C12.3592 3.63115 12.061 3.93426 11.6782 4.15274C11.2905 4.37406 10.8427 4.49323 10.3145 4.49329C9.22607 4.49341 8.51466 3.98939 7.97584 3.30782C7.71519 2.97812 7.49136 2.6036 7.28138 2.23014C7.20876 2.10098 7.13858 1.97345 7.06876 1.84659C6.88627 1.51499 6.5371 1.31246 6.1583 1.31243L3.00628 1.31219H3.00619ZM7.66106 0.853589C7.58526 0.720792 7.53419 0.56882 7.42658 0.46021C7.33292 0.365678 7.20533 0.31251 7.07211 0.3125L3.00837 0.312196L3.00828 0.312196C1.84808 0.312327 0.880979 1.22992 0.878658 2.39177L0.837597 22.9464C0.835276 24.1083 1.79871 25.0256 2.95891 25.0255L7.02257 25.025C7.19332 25.025 7.35244 24.9379 7.44456 24.7939C7.64555 24.4798 7.82788 24.159 7.9972 23.861L7.99731 23.8608L7.99799 23.8596C8.04133 23.7834 8.08382 23.7086 8.12555 23.6358C8.33565 23.2695 8.52883 22.9496 8.73887 22.6806C9.1409 22.1659 9.57812 21.8661 10.2798 21.866C10.9786 21.8659 11.4004 22.1627 11.7946 22.6776C12.0015 22.9479 12.192 23.2684 12.4051 23.6379L12.4734 23.7565L12.4734 23.7566C12.6633 24.0868 12.8711 24.4481 13.1103 24.8039C13.203 24.9417 13.3582 25.0243 13.5244 25.0243L17.5881 25.0238C18.7483 25.0237 19.7154 24.1061 19.7177 22.9443L19.7588 2.38964C19.7611 1.22779 18.7977 0.310416 17.6375 0.310547L13.5722 0.311005C13.4335 0.311021 13.301 0.368621 13.2062 0.470044C13.1166 0.565924 13.0654 0.691554 12.9941 0.801704C12.8036 1.0959 12.6346 1.38601 12.4783 1.65411L12.4783 1.65412L12.432 1.73358C12.2147 2.10606 12.0243 2.42549 11.8184 2.69424C11.6153 2.95939 11.4125 3.154 11.1839 3.28451C10.9602 3.41217 10.6861 3.49325 10.3165 3.49329C9.60952 3.49337 9.16317 3.19559 8.76081 2.68664C8.55087 2.42108 8.35825 2.10315 8.1533 1.73864C8.08979 1.6257 8.02421 1.50658 7.95664 1.38384C7.86195 1.21185 7.76334 1.03276 7.66106 0.853589ZM4.92908 7.15511C4.92971 6.87897 5.15408 6.65511 5.43022 6.65511L8.68307 6.65511C8.95921 6.65511 9.18256 6.87897 9.18193 7.15511C9.1813 7.43125 8.95693 7.65511 8.68079 7.65511L5.42794 7.65511C5.1518 7.65511 4.92845 7.43125 4.92908 7.15511ZM11.9354 6.65437C11.6593 6.65437 11.4349 6.87823 11.4343 7.15437C11.4336 7.43051 11.657 7.65437 11.9331 7.65437L15.186 7.65437C15.4621 7.65437 15.6865 7.43051 15.6871 7.15437C15.6877 6.87823 15.4644 6.65437 15.1883 6.65437L11.9354 6.65437ZM4.9082 18.2064C4.90883 17.9302 5.1332 17.7064 5.40934 17.7064L8.66219 17.7064C8.93833 17.7064 9.16168 17.9302 9.16105 18.2064C9.16042 18.4825 8.93605 18.7064 8.65991 18.7064L5.40706 18.7064C5.13092 18.7064 4.90757 18.4825 4.9082 18.2064ZM11.915 17.7056C11.6389 17.7056 11.4145 17.9295 11.4139 18.2056C11.4132 18.4818 11.6366 18.7056 11.9127 18.7056L15.1656 18.7056C15.4417 18.7056 15.6661 18.4818 15.6667 18.2056C15.6674 17.9295 15.444 17.7056 15.1679 17.7056H11.915Z"/>
</mask>
<path d="M1.87866 2.39166L2.87866 2.39183L1.87866 2.39166ZM3.00619 1.31219L3.00801 0.312196L3.00782 0.312197L3.00619 1.31219ZM1.8376 22.9463L0.837598 22.9461L0.837598 22.9461L1.8376 22.9463ZM2.96091 24.0255L2.95919 25.0255H2.9592L2.96091 24.0255ZM7.12139 23.3799L6.25218 22.8869L6.24606 22.898L7.12139 23.3799ZM7.25835 23.1397L6.39112 22.6434L6.39112 22.6434L7.25835 23.1397ZM7.95124 22.0662L8.73893 22.6808L8.73894 22.6808L7.95124 22.0662ZM10.2818 20.866L10.2835 19.866H10.2835L10.2818 20.866ZM12.5891 22.0687L11.7947 22.6775H11.7947L12.5891 22.0687ZM13.2716 23.1369L14.1384 22.6367L14.1381 22.6362L13.2716 23.1369ZM17.5901 24.0238L17.5884 25.0238H17.5884L17.5901 24.0238ZM18.7177 22.9444L19.7177 22.9446L18.7177 22.9444ZM18.7588 2.38976L17.7588 2.38958L17.7588 2.38958L18.7588 2.38976ZM17.6355 1.31055L17.6338 2.31054L17.6355 1.31055ZM13.2955 2.23617L14.159 2.73895L14.1591 2.73871L13.2955 2.23617ZM12.6118 3.30125L13.4053 3.90841L13.4053 3.90841L12.6118 3.30125ZM11.6782 4.15274L11.1837 3.28447L11.1837 3.28447L11.6782 4.15274ZM10.3145 4.49329L10.3162 3.49329L10.3145 4.49329ZM7.97584 3.30782L7.19093 3.92887L7.19093 3.92887L7.97584 3.30782ZM7.28138 2.23014L8.15326 1.73883L8.15326 1.73883L7.28138 2.23014ZM3.00628 1.31219L3.00818 0.312197H3.0081L3.00628 1.31219ZM7.07211 0.3125L7.07022 1.3125L7.07211 0.3125ZM3.00837 0.312196L3.01027 -0.687802H3.01008L3.00837 0.312196ZM3.00828 0.312196L3.00657 1.31219H3.00657L3.00828 0.312196ZM0.878658 2.39177L1.87866 2.39194L0.878658 2.39177ZM0.837597 22.9464L-0.162402 22.9462L0.837597 22.9464ZM2.95891 25.0255L2.9572 26.0255H2.9572L2.95891 25.0255ZM7.02257 25.025L7.02429 24.025H7.02429L7.02257 25.025ZM7.44456 24.7939L8.28658 25.3318L8.28658 25.3318L7.44456 24.7939ZM7.9972 23.861L8.8664 24.3539L8.86721 24.3525L7.9972 23.861ZM7.99731 23.8608L7.1281 23.368L7.1273 23.3694L7.99731 23.8608ZM7.99799 23.8596L7.12878 23.3668L7.12877 23.3668L7.99799 23.8596ZM8.12555 23.6358L8.99279 24.1321L8.99279 24.1321L8.12555 23.6358ZM8.73887 22.6806L7.95118 22.066L7.95118 22.066L8.73887 22.6806ZM10.2798 21.866L10.2815 20.866H10.2815L10.2798 21.866ZM11.7946 22.6776L11.0002 23.2864L11.0002 23.2864L11.7946 22.6776ZM12.4051 23.6379L13.272 23.1378L13.2716 23.1371L12.4051 23.6379ZM12.4734 23.7565L11.6065 24.2566L11.6106 24.2638L11.6149 24.271L12.4734 23.7565ZM12.4734 23.7566L13.3405 23.2568L13.3362 23.2494L13.3318 23.2421L12.4734 23.7566ZM13.1103 24.8039L12.2802 25.3629L12.2802 25.3629L13.1103 24.8039ZM13.5244 25.0243L13.5262 24.0243H13.5261L13.5244 25.0243ZM17.5881 25.0238L17.5864 26.0238L17.5881 25.0238ZM19.7177 22.9443L18.7177 22.9441L18.7177 22.9441L19.7177 22.9443ZM19.7588 2.38964L20.7588 2.38982L20.7588 2.38982L19.7588 2.38964ZM17.6375 0.310547L17.6392 -0.689451L17.6375 0.310547ZM13.5722 0.311005L13.5705 1.311L13.5722 0.311005ZM12.4783 1.65411L13.3094 2.20881L13.3265 2.18311L13.3421 2.15642L12.4783 1.65411ZM12.4783 1.65412L11.6473 1.09942L11.6302 1.12504L11.6146 1.15165L12.4783 1.65412ZM12.432 1.73358L13.2955 2.23636L13.2957 2.23605L12.432 1.73358ZM11.8184 2.69424L11.025 2.08707L11.025 2.08708L11.8184 2.69424ZM11.1839 3.28451L10.6894 2.41624L10.6894 2.41624L11.1839 3.28451ZM10.3165 3.49329L10.3182 2.49329L10.3165 3.49329ZM8.76081 2.68664L9.54572 2.06559L9.54571 2.06559L8.76081 2.68664ZM8.1533 1.73864L7.28142 2.22995L7.28142 2.22995L8.1533 1.73864ZM7.95664 1.38384L8.83285 0.900324L7.95664 1.38384ZM5.43022 6.65511L5.4284 7.65511L5.43022 6.65511ZM4.92908 7.15511L3.92908 7.15466L4.92908 7.15511ZM8.68307 6.65511L8.6849 5.65511L8.68307 6.65511ZM9.18193 7.15511L8.18193 7.15465L9.18193 7.15511ZM8.68079 7.65511L8.68261 6.65511L8.68079 7.65511ZM5.42794 7.65511L5.42612 8.65511L5.42794 7.65511ZM11.4343 7.15437L12.4343 7.15483L11.4343 7.15437ZM11.9354 6.65437L11.9372 5.65437L11.9354 6.65437ZM11.9331 7.65437L11.935 6.65437L11.9331 7.65437ZM15.186 7.65437L15.1841 8.65437L15.186 7.65437ZM15.1883 6.65437L15.1864 7.65437L15.1883 6.65437ZM5.40934 17.7064L5.40752 18.7064H5.40752L5.40934 17.7064ZM8.66219 17.7064L8.66401 16.7064H8.66401L8.66219 17.7064ZM9.16105 18.2064L10.161 18.2068L10.161 18.2068L9.16105 18.2064ZM8.65991 18.7064L8.66173 17.7064H8.66173L8.65991 18.7064ZM5.40706 18.7064L5.40524 19.7064H5.40524L5.40706 18.7064ZM11.9127 18.7056L11.9109 19.7056H11.9109L11.9127 18.7056ZM15.1656 18.7056L15.1674 17.7056H15.1674L15.1656 18.7056ZM15.6667 18.2056L14.6667 18.2052L15.6667 18.2056ZM7.66106 0.853589L6.79238 1.35054L7.66106 0.853589ZM12.9941 0.801704L12.1549 0.259362L12.9941 0.801704ZM14.6913 24.0242L14.6896 25.0242L14.6913 24.0242ZM6.00088 24.0251L6.00259 23.0252L6.00088 24.0251ZM2.87866 2.39183C2.87867 2.38463 2.89794 2.31221 3.00455 2.31219L3.00782 0.312197C1.84403 0.312417 0.880972 1.23348 0.878658 2.39149L2.87866 2.39183ZM2.8376 22.9465L2.87866 2.39183L0.878658 2.39149L0.837598 22.9461L2.8376 22.9465ZM2.96262 23.0255C2.8562 23.0255 2.83758 22.9534 2.8376 22.9465L0.837598 22.9461C0.835284 24.1044 1.79513 25.0256 2.95919 25.0255L2.96262 23.0255ZM6.00259 23.0252L2.96262 23.0255L2.9592 25.0255L5.99917 25.0251L6.00259 23.0252ZM6.24606 22.898L6.24603 22.898L7.9967 23.8619L7.99673 23.8618L6.24606 22.898ZM6.39112 22.6434C6.3439 22.7257 6.29745 22.8074 6.25225 22.8869L7.99054 23.8729C8.03603 23.7929 8.0806 23.7145 8.12559 23.636L6.39112 22.6434ZM7.16355 21.4515C6.85807 21.8427 6.6044 22.2715 6.39112 22.6434L8.12559 23.636C8.33558 23.2699 8.52882 22.9498 8.73893 22.6808L7.16355 21.4515ZM10.2835 19.866C8.79679 19.8662 7.82791 20.6009 7.16355 21.4515L8.73894 22.6808C9.14183 22.1649 9.57935 21.8661 10.2801 21.866L10.2835 19.866ZM13.3836 21.4599C12.7327 20.6097 11.7793 19.8658 10.2835 19.866L10.2801 21.866C10.9777 21.8659 11.3997 22.1616 11.7947 22.6775L13.3836 21.4599ZM14.1381 22.6362C13.9292 22.2739 13.6798 21.8469 13.3836 21.4599L11.7947 22.6775C12.0017 22.9478 12.1922 23.2685 12.4051 23.6377L14.1381 22.6362ZM14.207 22.7559L14.1384 22.6367L12.4048 23.6371L12.4734 23.7562L14.207 22.7559ZM17.5918 23.0238L14.693 23.0242L14.6896 25.0242L17.5884 25.0238L17.5918 23.0238ZM17.7177 22.9442C17.7177 22.9514 17.6984 23.0238 17.5918 23.0238L17.5884 25.0238C18.7523 25.0237 19.7154 24.1026 19.7177 22.9446L17.7177 22.9442ZM17.7588 2.38958L17.7177 22.9442L19.7177 22.9446L19.7588 2.38993L17.7588 2.38958ZM17.6338 2.31054C17.7402 2.31053 17.7588 2.38263 17.7588 2.38958L19.7588 2.38993C19.7611 1.23162 18.8013 0.310416 17.6372 0.310547L17.6338 2.31054ZM14.847 2.31086L17.6338 2.31054L17.6372 0.310547L14.8504 0.310861L14.847 2.31086ZM14.1591 2.73871L14.2025 2.66431L12.4752 1.65922L12.4318 1.73363L14.1591 2.73871ZM13.4053 3.90841C13.6992 3.52466 13.9492 3.0984 14.159 2.73895L12.432 1.7334C12.2148 2.10559 12.0243 2.42523 11.8184 2.69409L13.4053 3.90841ZM12.1727 5.02101C12.7096 4.7146 13.1031 4.30302 13.4053 3.90841L11.8184 2.69409C11.6153 2.95927 11.4124 3.15393 11.1837 3.28447L12.1727 5.02101ZM10.3128 5.49329C10.9995 5.49321 11.6209 5.33597 12.1727 5.02101L11.1837 3.28447C10.96 3.41214 10.6859 3.49325 10.3162 3.49329L10.3128 5.49329ZM7.19093 3.92887C7.86559 4.78226 8.84197 5.49345 10.3128 5.49329L10.3162 3.49329C9.61018 3.49337 9.16373 3.19652 8.76074 2.68678L7.19093 3.92887ZM6.4095 2.72145C6.6246 3.104 6.8796 3.53506 7.19093 3.92887L8.76074 2.68678C8.55077 2.42118 8.35813 2.1032 8.15326 1.73883L6.4095 2.72145ZM6.19246 2.32997C6.26195 2.45622 6.33429 2.58769 6.4095 2.72145L8.15326 1.73883C8.08322 1.61426 8.0152 1.49068 7.94506 1.36322L6.19246 2.32997ZM3.00438 2.31219L6.15641 2.31243L6.1602 0.312432L3.00818 0.312197L3.00438 2.31219ZM3.00436 2.31219H3.00446L3.0081 0.312197H3.00801L3.00436 2.31219ZM7.07022 1.3125C6.93699 1.31249 6.80932 1.25931 6.71557 1.16469L8.13759 -0.244265C7.85652 -0.527954 7.47366 -0.687469 7.07401 -0.687499L7.07022 1.3125ZM3.00647 1.31219L7.07022 1.3125L7.07401 -0.687499L3.01027 -0.687802L3.00647 1.31219ZM3.00657 1.31219L3.00666 1.31219L3.01008 -0.687802H3.00999L3.00657 1.31219ZM1.87866 2.39194C1.87982 1.81111 2.36924 1.31227 3.00657 1.31219L3.00999 -0.687802C1.32692 -0.687612 -0.11786 0.648721 -0.121342 2.3916L1.87866 2.39194ZM1.8376 22.9466L1.87866 2.39194L-0.121342 2.3916L-0.162402 22.9462L1.8376 22.9466ZM2.96062 24.0255C2.3235 24.0256 1.83644 23.5272 1.8376 22.9466L-0.162402 22.9462C-0.165884 24.6893 1.27393 26.0257 2.9572 26.0255L2.96062 24.0255ZM7.02429 24.025L2.96062 24.0255L2.9572 26.0255L7.02086 26.025L7.02429 24.025ZM6.60254 24.256C6.69457 24.1122 6.85355 24.0251 7.02429 24.025L7.02086 26.025C7.53309 26.025 8.01031 25.7635 8.28658 25.3318L6.60254 24.256ZM7.12799 23.3681C6.95684 23.6693 6.7871 23.9676 6.60254 24.256L8.28658 25.3318C8.50399 24.9921 8.69892 24.6486 8.8664 24.3539L7.12799 23.3681ZM7.1273 23.3694L7.12719 23.3696L8.86721 24.3525L8.86733 24.3523L7.1273 23.3694ZM7.12877 23.3668L7.1281 23.368L8.86653 24.3537L8.8672 24.3525L7.12877 23.3668ZM7.25832 23.1395C7.21543 23.2143 7.17195 23.2908 7.12878 23.3668L8.86719 24.3525C8.91071 24.2759 8.95221 24.2029 8.99279 24.1321L7.25832 23.1395ZM7.95118 22.066C7.69333 22.3962 7.46983 22.7707 7.25832 23.1395L8.99279 24.1321C9.20147 23.7683 9.36433 23.503 9.52656 23.2953L7.95118 22.066ZM10.2815 20.866C9.77815 20.8661 9.3208 20.9763 8.90732 21.2093C8.50512 21.4359 8.19997 21.7475 7.95118 22.066L9.52656 23.2953C9.6798 23.0991 9.79427 23.0034 9.88661 22.9513C9.96767 22.9057 10.0798 22.866 10.2781 22.866L10.2815 20.866ZM12.5891 22.0688C12.3469 21.7525 12.0483 21.4389 11.6494 21.2106C11.2381 20.9752 10.7828 20.8659 10.2815 20.866L10.2781 22.866C10.4755 22.866 10.5806 22.9051 10.6535 22.9468C10.7387 22.9956 10.8481 23.0878 11.0002 23.2864L12.5891 22.0688ZM13.2716 23.1371C13.0608 22.7717 12.8408 22.3976 12.5891 22.0688L11.0002 23.2864C11.1623 23.4982 11.3232 23.7651 11.5386 24.1386L13.2716 23.1371ZM13.3403 23.2564L13.272 23.1378L11.5382 24.1379L11.6065 24.2566L13.3403 23.2564ZM13.3318 23.2421L13.3318 23.242L11.6149 24.271L11.615 24.2711L13.3318 23.2421ZM13.9405 24.2449C13.7237 23.9225 13.5326 23.5908 13.3405 23.2568L11.6063 24.2563C11.7941 24.5828 12.0185 24.9737 12.2802 25.3629L13.9405 24.2449ZM13.5261 24.0243C13.6924 24.0243 13.8477 24.1069 13.9405 24.2449L12.2802 25.3629C12.5583 25.7765 13.024 26.0244 13.5227 26.0243L13.5261 24.0243ZM17.5898 24.0238L13.5262 24.0243L13.5227 26.0243L17.5864 26.0238L17.5898 24.0238ZM18.7177 22.9441C18.7166 23.5249 18.2271 24.0238 17.5898 24.0238L17.5864 26.0238C19.2695 26.0236 20.7142 24.6873 20.7177 22.9444L18.7177 22.9441ZM18.7588 2.38947L18.7177 22.9441L20.7177 22.9444L20.7588 2.38982L18.7588 2.38947ZM17.6358 1.31055C18.2729 1.31047 18.7599 1.80888 18.7588 2.38947L20.7588 2.38982C20.7623 0.64669 19.3225 -0.689641 17.6392 -0.689451L17.6358 1.31055ZM13.5705 1.311L17.6358 1.31055L17.6392 -0.689451L13.5739 -0.688993L13.5705 1.311ZM13.9363 1.15208C13.8416 1.2534 13.7091 1.31099 13.5705 1.311L13.5739 -0.688993C13.1579 -0.688946 12.7603 -0.516158 12.4761 -0.211991L13.9363 1.15208ZM13.3421 2.15642C13.4997 1.88598 13.6575 1.61558 13.8332 1.34405L12.1549 0.259362C11.9498 0.576224 11.7694 0.88604 11.6146 1.1518L13.3421 2.15642ZM13.3094 2.20882L13.3094 2.20881L11.6473 1.09941L11.6473 1.09942L13.3094 2.20882ZM13.2957 2.23605L13.342 2.15658L11.6146 1.15165L11.5683 1.23112L13.2957 2.23605ZM12.6119 3.3014C12.8619 2.97501 13.0822 2.60186 13.2955 2.23636L11.5685 1.23081C11.3471 1.61026 11.1867 1.87598 11.025 2.08707L12.6119 3.3014ZM11.6784 4.15277C12.0611 3.93433 12.3592 3.63125 12.6119 3.30139L11.025 2.08708C10.8714 2.28753 10.764 2.37367 10.6894 2.41624L11.6784 4.15277ZM10.3148 4.49329C10.8431 4.49323 11.2908 4.374 11.6784 4.15277L10.6894 2.41624C10.6536 2.43669 10.613 2.45421 10.5605 2.46755C10.5067 2.48119 10.4292 2.49328 10.3182 2.49329L10.3148 4.49329ZM7.9759 3.30769C8.22768 3.62617 8.5361 3.93376 8.94018 4.15666C9.35397 4.38493 9.81155 4.49335 10.3148 4.49329L10.3182 2.49329C10.1145 2.49332 9.9954 2.45288 9.90868 2.40504C9.81223 2.35184 9.6963 2.25607 9.54572 2.06559L7.9759 3.30769ZM7.28142 2.22995C7.49131 2.60325 7.71518 2.97788 7.9759 3.30769L9.54571 2.06559C9.38657 1.86428 9.22519 1.60306 9.02518 1.24734L7.28142 2.22995ZM7.08042 1.86736C7.14754 1.98928 7.21533 2.11242 7.28142 2.22995L9.02518 1.24734C8.96425 1.13897 8.90088 1.02388 8.83285 0.900324L7.08042 1.86736ZM6.79238 1.35054C6.89023 1.52195 6.98517 1.69436 7.08042 1.86736L8.83285 0.900324C8.73872 0.729344 8.63646 0.54357 8.52975 0.356633L6.79238 1.35054ZM5.43205 5.65511C4.6038 5.65511 3.93097 6.32641 3.92908 7.15466L5.92908 7.15557C5.92845 7.43153 5.70436 7.65511 5.4284 7.65511L5.43205 5.65511ZM8.6849 5.65511L5.43205 5.65511L5.4284 7.65511L8.68125 7.65511L8.6849 5.65511ZM10.1819 7.15557C10.1838 6.32696 9.5135 5.65511 8.6849 5.65511L8.68125 7.65511C8.40492 7.65511 8.1813 7.43097 8.18193 7.15465L10.1819 7.15557ZM8.67897 8.65511C9.50721 8.65511 10.18 7.98382 10.1819 7.15557L8.18193 7.15465C8.18256 6.87869 8.40665 6.65511 8.68261 6.65511L8.67897 8.65511ZM5.42612 8.65511L8.67897 8.65511L8.68261 6.65511L5.42977 6.65511L5.42612 8.65511ZM3.92908 7.15466C3.92719 7.98326 4.59751 8.65511 5.42612 8.65511L5.42977 6.65511C5.70609 6.65511 5.92971 6.87925 5.92908 7.15557L3.92908 7.15466ZM12.4343 7.15483C12.4336 7.43079 12.2095 7.65437 11.9336 7.65437L11.9372 5.65437C11.109 5.65437 10.4362 6.32567 10.4343 7.15391L12.4343 7.15483ZM11.935 6.65437C12.2113 6.65437 12.4349 6.87851 12.4343 7.15483L10.4343 7.15391C10.4324 7.98252 11.1027 8.65437 11.9313 8.65437L11.935 6.65437ZM15.1878 6.65437L11.935 6.65437L11.9313 8.65437H15.1841L15.1878 6.65437ZM14.6871 7.15391C14.6877 6.87795 14.9118 6.65437 15.1878 6.65437L15.1841 8.65437C16.0124 8.65437 16.6852 7.98307 16.6871 7.15483L14.6871 7.15391ZM15.1864 7.65437C14.9101 7.65437 14.6865 7.43023 14.6871 7.15391L16.6871 7.15483C16.689 6.32622 16.0187 5.65437 15.1901 5.65437L15.1864 7.65437ZM11.9336 7.65437L15.1864 7.65437L15.1901 5.65437L11.9372 5.65437L11.9336 7.65437ZM5.41117 16.7064C4.58292 16.7064 3.91009 17.3777 3.9082 18.2059L5.9082 18.2068C5.90757 18.4828 5.68348 18.7064 5.40752 18.7064L5.41117 16.7064ZM8.66401 16.7064L5.41117 16.7064L5.40752 18.7064L8.66036 18.7064L8.66401 16.7064ZM10.161 18.2068C10.1629 17.3782 9.49262 16.7064 8.66401 16.7064L8.66036 18.7064C8.38404 18.7064 8.16042 18.4822 8.16105 18.2059L10.161 18.2068ZM8.65808 19.7064C9.48633 19.7064 10.1592 19.0351 10.161 18.2068L8.16105 18.2059C8.16168 17.9299 8.38577 17.7064 8.66173 17.7064L8.65808 19.7064ZM5.40524 19.7064L8.65808 19.7064L8.66173 17.7064L5.40889 17.7064L5.40524 19.7064ZM3.9082 18.2059C3.90631 19.0345 4.57663 19.7064 5.40524 19.7064L5.40889 17.7064C5.68521 17.7064 5.90883 17.9305 5.9082 18.2068L3.9082 18.2059ZM12.4139 18.2061C12.4132 18.482 12.1892 18.7056 11.9132 18.7056L11.9168 16.7056C11.0886 16.7056 10.4158 17.3769 10.4139 18.2052L12.4139 18.2061ZM11.9146 17.7056C12.1909 17.7056 12.4145 17.9298 12.4139 18.2061L10.4139 18.2052C10.412 19.0338 11.0823 19.7056 11.9109 19.7056L11.9146 17.7056ZM15.1674 17.7056L11.9146 17.7056L11.9109 19.7056L15.1638 19.7056L15.1674 17.7056ZM14.6667 18.2052C14.6674 17.9292 14.8914 17.7056 15.1674 17.7056L15.1638 19.7056C15.992 19.7056 16.6648 19.0343 16.6667 18.2061L14.6667 18.2052ZM15.166 18.7056C14.8897 18.7056 14.6661 18.4815 14.6667 18.2052L16.6667 18.2061C16.6686 17.3775 15.9983 16.7056 15.1697 16.7056L15.166 18.7056ZM11.9132 18.7056H15.166L15.1697 16.7056H11.9168L11.9132 18.7056ZM6.71557 1.16469C6.66479 1.11343 6.6497 1.07485 6.66966 1.11297C6.68049 1.13365 6.68866 1.15075 6.71113 1.19617C6.72977 1.23383 6.758 1.29031 6.79238 1.35054L8.52975 0.356633C8.49433 0.294592 8.52587 0.343175 8.44183 0.18269C8.3904 0.08447 8.29598 -0.0844041 8.13759 -0.244266L6.71557 1.16469ZM7.94506 1.36322C7.58386 0.706915 6.89618 0.312487 6.1602 0.312432L6.15641 2.31243C6.17803 2.31243 6.18867 2.32306 6.19246 2.32997L7.94506 1.36322ZM14.8504 0.310861C13.8935 0.310969 12.9768 0.798696 12.4751 1.65933L14.2025 2.6642C14.326 2.45244 14.5636 2.31089 14.847 2.31086L14.8504 0.310861ZM12.4761 -0.21199C12.3514 -0.0784916 12.2705 0.05702 12.2269 0.132649C12.2089 0.163986 12.1804 0.215316 12.174 0.22671C12.1611 0.249523 12.1562 0.257346 12.1549 0.259362L13.8332 1.34405C13.8676 1.29099 13.8958 1.2418 13.9154 1.20708C13.9249 1.19023 13.9351 1.17198 13.9417 1.16012C13.9493 1.14656 13.9548 1.13681 13.9596 1.1284C13.9819 1.0897 13.9714 1.11446 13.9363 1.15208L12.4761 -0.21199ZM12.4732 23.7559C12.9367 24.5615 13.7913 25.0243 14.6896 25.0242L14.693 23.0242C14.4773 23.0242 14.2988 22.9155 14.2072 22.7562L12.4732 23.7559ZM5.99917 25.0251C6.81131 25.0251 7.57823 24.5982 7.9905 23.8729L6.25222 22.887C6.2067 22.9671 6.11608 23.0251 6.00259 23.0252L5.99917 25.0251Z" fill="url(#paint0_linear)" mask="url(#path-1-inside-1)"/>
<defs>
<linearGradient id="paint0_linear" x1="10.3207" y1="0.310547" x2="10.3207" y2="25.0255" gradientUnits="userSpaceOnUse">
<stop stop-color="#B727F3"/>
<stop offset="1" stop-color="#DB4CAA"/>
</linearGradient>
</defs>
</svg>
